<svg width="33" height="32" viewBox="0 0 33 32" fill="none" xmlns="http://www.w3.org/2000/svg">
<path d="M26.9621 29.3333H5.62874C5.27512 29.3333 4.93598 29.1928 4.68593 28.9428C4.43589 28.6927 4.29541 28.3536 4.29541 28V3.99996C4.29541 3.64634 4.43589 3.3072 4.68593 3.05715C4.93598 2.8071 5.27512 2.66663 5.62874 2.66663H26.9621C27.3157 2.66663 27.6548 2.8071 27.9049 3.05715C28.1549 3.3072 28.2954 3.64634 28.2954 3.99996V28C28.2954 28.3536 28.1549 28.6927 27.9049 28.9428C27.6548 29.1928 27.3157 29.3333 26.9621 29.3333ZM25.6287 26.6666V5.33329H6.96208V26.6666H25.6287ZM10.9621 9.33329H21.6287V12H10.9621V9.33329ZM10.9621 14.6666H21.6287V17.3333H10.9621V14.6666ZM10.9621 20H21.6287V22.6666H10.9621V20Z" fill="white"/>
</svg>
