<svg width="33" height="32" viewBox="0 0 33 32" fill="none" xmlns="http://www.w3.org/2000/svg">
<path d="M16.2954 28V16M16.2954 9.33333H10.8954C7.20208 9.33333 6.97541 4 10.8954 4C15.0954 4 16.2954 9.33333 16.2954 9.33333ZM16.2954 9.33333H21.6954C25.5567 9.33333 25.5567 4 21.6954 4C17.4954 4 16.2954 9.33333 16.2954 9.33333Z" stroke="white" stroke-width="2" stroke-linecap="round" stroke-linejoin="round"/>
<path d="M26.9621 16V25.3334C26.9621 26.0406 26.6811 26.7189 26.181 27.219C25.6809 27.7191 25.0027 28 24.2954 28H8.29541C7.58817 28 6.90989 27.7191 6.40979 27.219C5.90969 26.7189 5.62874 26.0406 5.62874 25.3334V16M28.2954 16V12C28.2954 11.2928 28.0145 10.6145 27.5144 10.1144C27.0143 9.61433 26.336 9.33337 25.6287 9.33337H6.96208C6.25483 9.33337 5.57656 9.61433 5.07646 10.1144C4.57636 10.6145 4.29541 11.2928 4.29541 12V16H28.2954Z" stroke="white" stroke-width="2" stroke-linecap="round" stroke-linejoin="round"/>
</svg>
