<svg width="33" height="32" viewBox="0 0 33 32" fill="none" xmlns="http://www.w3.org/2000/svg">
<path fill-rule="evenodd" clip-rule="evenodd" d="M28.5869 5.50794L29.2598 8.42092C29.3495 8.80968 29.3441 9.2197 29.2443 9.60511C29.1446 9.99053 28.9544 10.3361 28.695 10.6033L28.6044 10.6914C28.1586 11.0949 27.8232 11.6399 27.6391 12.2603C27.455 12.8806 27.43 13.5496 27.5672 14.1861C27.7044 14.8226 27.9978 15.3992 28.4119 15.846C28.826 16.2928 29.343 16.5905 29.9001 16.7031L30.0262 16.7254C30.3791 16.779 30.7104 16.9528 30.9782 17.2249C31.2459 17.4969 31.4381 17.855 31.5304 18.2538L32.2156 21.2196C32.2951 21.5635 32.3155 21.9223 32.2755 22.2753C32.2355 22.6283 32.136 22.9688 31.9826 23.2772C31.8291 23.5855 31.6249 23.8559 31.3814 24.0726C31.138 24.2894 30.8601 24.4485 30.5637 24.5406L6.86484 31.9078C6.26629 32.0937 5.62861 31.9961 5.09206 31.6365C4.5555 31.277 4.16401 30.6849 4.00369 29.9904L3.35937 27.2001C3.26368 26.7848 3.26734 26.3472 3.36995 25.9341C3.47257 25.5211 3.67025 25.1483 3.94177 24.8558L4.03698 24.7609C4.47353 24.3477 4.79778 23.7968 4.97066 23.1746C5.14354 22.5525 5.15768 21.8856 5.01137 21.2544C4.86506 20.6231 4.56454 20.0544 4.14602 19.6168C3.72751 19.1792 3.20886 18.8913 2.65256 18.7878C2.26781 18.7158 1.90921 18.5163 1.61995 18.2133C1.33069 17.9103 1.12311 17.5167 1.0222 17.0799L0.374969 14.2788C0.295566 13.9348 0.275342 13.5761 0.315451 13.223C0.355561 12.87 0.455219 12.5296 0.608733 12.2213C0.762247 11.9129 0.966609 11.6427 1.21015 11.426C1.45369 11.2094 1.73163 11.0505 2.0281 10.9584L25.7252 3.59125C26.0216 3.499 26.3308 3.4754 26.635 3.5218C26.9393 3.5682 27.2327 3.68369 27.4985 3.86168C27.7643 4.03966 27.9973 4.27666 28.1841 4.55913C28.371 4.8416 28.5075 5.164 28.5869 5.50794ZM26.1545 5.91933L2.65957 13.2235C2.33536 13.3245 2.1426 13.7115 2.22963 14.0876L2.69169 16.089C3.69089 16.3226 4.61403 16.8753 5.35711 17.6847C6.1002 18.4942 6.63371 19.5283 6.89755 20.6706C7.16143 21.813 7.14512 23.0182 6.85047 24.1504C6.55581 25.2826 5.99452 26.2968 5.22981 27.0788L5.69187 29.0802C5.77949 29.4564 6.11246 29.68 6.43666 29.579L29.931 22.2749C30.2552 22.1739 30.448 21.7869 30.361 21.4108L29.8995 19.41C28.9002 19.1764 27.977 18.6236 27.2339 17.814C26.4908 17.0044 25.9574 15.9702 25.6936 14.8277C25.4297 13.6854 25.4459 12.4803 25.7404 11.3481C26.035 10.2159 26.5962 9.20165 27.3608 8.41957L26.8987 6.41816C26.8781 6.32862 26.8425 6.24467 26.7939 6.17113C26.7453 6.09758 26.6847 6.03587 26.6155 5.98954C26.5463 5.94321 26.4699 5.91316 26.3907 5.90111C26.3115 5.88906 26.2317 5.89526 26.1545 5.91933ZM25.4045 20.531C25.464 20.789 25.4792 21.058 25.4491 21.3227C25.419 21.5874 25.3443 21.8427 25.2292 22.0739C25.1141 22.3051 24.9608 22.5078 24.7782 22.6703C24.5956 22.8328 24.3872 22.952 24.1649 23.0211C23.9426 23.0902 23.7108 23.1078 23.4826 23.0729C23.2544 23.038 23.0344 22.9513 22.8351 22.8177C22.6358 22.6842 22.4612 22.5064 22.3211 22.2945C22.181 22.0826 22.0783 21.8408 22.0188 21.5829C21.8985 21.062 21.9616 20.507 22.1941 20.04C22.4265 19.573 22.8094 19.2323 23.2583 19.0928C23.7073 18.9534 24.1856 19.0265 24.5881 19.2962C24.9906 19.5659 25.2843 20.0101 25.4045 20.531ZM24.1953 15.2933C24.3156 15.8143 24.2526 16.3693 24.0202 16.8363C23.7878 17.3034 23.405 17.6442 22.956 17.7838C22.5071 17.9233 22.0287 17.8503 21.6261 17.5806C21.2236 17.311 20.9299 16.8668 20.8096 16.3459C20.6961 15.8277 20.7632 15.2785 20.9962 14.8173C21.2292 14.356 21.6094 14.0198 22.0545 13.8814C22.4996 13.743 22.9737 13.8135 23.3743 14.0778C23.7749 14.3421 24.0702 14.7788 24.1953 15.2933ZM22.9849 10.0563C23.0445 10.3143 23.0597 10.5833 23.0297 10.848C22.9996 11.1128 22.9249 11.3681 22.8099 11.5993C22.6948 11.8306 22.5416 12.0333 22.359 12.1958C22.1764 12.3584 21.968 12.4776 21.7457 12.5467C21.5234 12.6159 21.2915 12.6335 21.0633 12.5986C20.8351 12.5638 20.6151 12.4771 20.4158 12.3436C20.2165 12.2101 20.0418 12.0323 19.9017 11.8205C19.7616 11.6086 19.6588 11.3668 19.5992 11.1089C19.4789 10.588 19.5419 10.0329 19.7743 9.5659C20.0067 9.09886 20.3895 8.75807 20.8385 8.61849C21.2875 8.47891 21.7658 8.55199 22.1684 8.82164C22.5709 9.09129 22.8646 9.53542 22.9849 10.0563ZM16.9314 1.15608L18.4222 3.62581C18.444 3.66241 18.4648 3.69946 18.4847 3.73697L4.22274 8.17083L13.6772 0.489847C14.1848 0.0776849 14.8127 -0.0836692 15.4229 0.0412683C16.0331 0.166206 16.5761 0.567205 16.9314 1.15608Z" fill="white"/>
</svg>
