<svg width="35" height="34" viewBox="0 0 35 34" fill="none" xmlns="http://www.w3.org/2000/svg">
<path d="M11.6749 19.4542L1.95117 29.178" stroke="white" stroke-width="1.75"/>
<path d="M14.8412 22.6205L5.1174 32.3442" stroke="white" stroke-width="1.75"/>
<path d="M5.11742 32.3442C4.69755 32.7641 4.12808 33 3.5343 33C2.94051 33 2.37104 32.7641 1.95117 32.3442" stroke="white" stroke-width="1.75" stroke-linecap="round" stroke-linejoin="round"/>
<path d="M1.95116 29.178C1.53129 29.5978 1.29541 30.1673 1.29541 30.7611C1.29541 31.3549 1.53129 31.9244 1.95116 32.3442" stroke="white" stroke-width="1.75" stroke-linecap="round" stroke-linejoin="round"/>
<path d="M33.2954 11.0749C33.2954 12.398 33.0348 13.7081 32.5285 14.9304C32.0222 16.1528 31.2801 17.2634 30.3445 18.199C29.409 19.1345 28.2983 19.8766 27.076 20.383C25.8536 20.8893 24.5435 21.1499 23.2205 21.1499C21.8974 21.1499 20.5873 20.8893 19.365 20.383C18.1426 19.8766 17.032 19.1345 16.0964 18.199C15.1609 17.2634 14.4188 16.1528 13.9124 14.9304C13.4061 13.7081 13.1455 12.398 13.1455 11.0749C13.1455 8.4029 14.207 5.8403 16.0964 3.95088C17.9858 2.06146 20.5484 1 23.2205 1C24.5435 1 25.8536 1.2606 27.076 1.76691C28.2983 2.27322 29.409 3.01534 30.3445 3.95088C31.2801 4.88642 32.0222 5.99708 32.5285 7.21942C33.0348 8.44177 33.2954 9.75188 33.2954 11.0749Z" stroke="white" stroke-width="1.75" stroke-linecap="round" stroke-linejoin="round"/>
<path d="M11.6749 19.4542L14.8412 22.6205" stroke="white" stroke-width="1.75" stroke-linecap="round" stroke-linejoin="round"/>
<path d="M13.2581 21.0373L16.0964 18.199" stroke="white" stroke-width="1.75" stroke-linecap="round" stroke-linejoin="round"/>
<path d="M8.97235 22.1569L12.1386 25.3231" stroke="white" stroke-width="1.75" stroke-linecap="round" stroke-linejoin="round"/>
<path d="M28.8176 11.075C28.8176 12.5594 28.2279 13.9831 27.1783 15.0328C26.1286 16.0824 24.7049 16.6721 23.2205 16.6721" stroke="white" stroke-width="1.75" stroke-linecap="round" stroke-linejoin="round"/>
</svg>
