<svg xmlns="http://www.w3.org/2000/svg" style="display: none;">
    <symbol id="tabler--hand-click" viewBox="0 0 24 24"><g fill="none" stroke="currentColor" stroke-linecap="round" stroke-linejoin="round" stroke-width="2"><path d="M8 13V4.5a1.5 1.5 0 0 1 3 0V12m0-.5v-2a1.5 1.5 0 0 1 3 0V12m0-1.5a1.5 1.5 0 0 1 3 0V12"/><path d="M17 11.5a1.5 1.5 0 0 1 3 0V16a6 6 0 0 1-6 6h-2h.208a6 6 0 0 1-5.012-2.7L7 19q-.468-.718-3.286-5.728a1.5 1.5 0 0 1 .536-2.022a1.87 1.87 0 0 1 2.28.28L8 13M5 3L4 2m0 5H3m11-4l1-1m0 4h1"/></g></symbol>

<symbol id="iconoir--google-docs" viewBox="0 0 32 32">
<path fill="none" stroke="currentColor" stroke-linecap="round" stroke-linejoin="round" stroke-width="1.5" d="M19 3H5a2 2 0 0 0-2 2v14a2 2 0 0 0 2 2h14a2 2 0 0 0 2-2V5a2 2 0 0 0-2-2M7 7h10M7 12h10M7 17h6"/></symbol>
   
  <symbol id="gala--search" viewBox="0 0 32 32"><g fill="none" stroke="currentColor" stroke-width="16">
  <path d="m 89.074145,145.23139 -68.17345,68.17344"/><path d="M 111.27275,167.42999 43.099304,235.60344"/><path stroke-linecap="round" stroke-linejoin="round" d="m 43.099305,235.60344 a 15.696788,15.696788 0 0 1 -22.19861,0"/><path stroke-linecap="round" stroke-linejoin="round" d="m 20.900695,213.40483 a 15.696788,15.696788 0 0 0 0,22.19861"/><path stroke-linecap="round" stroke-linejoin="round" d="M 240.65575,86.483932 A 70.635544,70.635544 0 0 1 170.0202,157.11948 70.635544,70.635544 0 0 1 99.384659,86.483932 70.635544,70.635544 0 0 1 170.0202,15.848389 70.635544,70.635544 0 0 1 240.65575,86.483932 Z"/><path stroke-linecap="round" stroke-linejoin="round" d="m 89.074145,145.23139 22.198605,22.1986"/><path stroke-linecap="round" stroke-linejoin="round" d="m 100.17344,156.33068 19.89988,-19.89987"/><path stroke-linecap="round" stroke-linejoin="round" d="m 70.126446,164.17908 22.198606,22.1986"/><path stroke-linecap="round" stroke-linejoin="round" d="M 209.26216,86.483936 A 39.241967,39.241967 0 0 1 170.0202,125.7259"/></g></symbol>

<symbol id="weui--arrow-filled" viewBox="0 0 12 24"><path fill="currentColor" fill-rule="evenodd" d="M10.157 12.711L4.5 18.368l-1.414-1.414l4.95-4.95l-4.95-4.95L4.5 5.64l5.657 5.657a1 1 0 0 1 0 1.414"/></symbol>
</svg>
